<?xml version="1.0" standalone="no"?>
<!DOCTYPE svg PUBLIC "-//W3C//DTD SVG 20010904//EN"
 "http://www.w3.org/TR/2001/REC-SVG-20010904/DTD/svg10.dtd">
<svg version="1.0" xmlns="http://www.w3.org/2000/svg"
 width="60.000000pt" height="60.000000pt" viewBox="0 0 60.000000 60.000000"
 preserveAspectRatio="xMidYMid meet">

<g transform="translate(0.000000,60.000000) scale(0.100000,-0.100000)"
fill="#F7F9F7" stroke="none">
<path d="M484 571 c-50 -23 -135 -128 -224 -278 -34 -56 -68 -103 -75 -103 -7
0 -27 16 -44 36 l-32 36 -49 -32 -50 -32 41 -52 c23 -28 56 -70 72 -94 28 -38
35 -42 73 -42 l42 0 61 125 c74 155 149 271 229 357 34 36 62 70 62 76 0 9
-32 22 -55 22 -5 0 -29 -9 -51 -19z"/>
</g>
</svg>
